<mxfile host="Electron" modified="2024-02-15T07:59:05.650Z" agent="Mozilla/5.0 (Windows NT 10.0; Win64; x64) AppleWebKit/537.36 (KHTML, like Gecko) draw.io/23.0.2 Chrome/120.0.6099.109 Electron/28.1.0 Safari/537.36" etag="t1tFlwOxtvfabyWhlBfv" version="23.0.2" type="device">
  <diagram name="Page-1" id="F6d9qKClxrf3HJb0bxKK">
    <mxGraphModel dx="2805" dy="808" grid="1" gridSize="10" guides="1" tooltips="1" connect="1" arrows="1" fold="1" page="1" pageScale="1" pageWidth="1169" pageHeight="1654" math="0" shadow="0">
      <root>
        <mxCell id="0" />
        <mxCell id="1" parent="0" />
        <mxCell id="hqlTSE6iJHoxaWxvJwrG-1" value="" style="shape=table;startSize=0;container=1;collapsible=0;childLayout=tableLayout;fontSize=16;align=left;fontFamily=Courier New;spacingLeft=5;spacingRight=4;" vertex="1" parent="1">
          <mxGeometry x="-170" y="280" width="1799.9999999999995" height="670" as="geometry" />
        </mxCell>
        <mxCell id="hqlTSE6iJHoxaWxvJwrG-2" value="" style="shape=tableRow;horizontal=0;startSize=0;swimlaneHead=0;swimlaneBody=0;strokeColor=inherit;top=0;left=0;bottom=0;right=0;collapsible=0;dropTarget=0;fillColor=none;points=[[0,0.5],[1,0.5]];portConstraint=eastwest;fontSize=16;align=left;spacingLeft=5;" vertex="1" parent="hqlTSE6iJHoxaWxvJwrG-1">
          <mxGeometry width="1799.9999999999995" height="84" as="geometry" />
        </mxCell>
        <mxCell id="hqlTSE6iJHoxaWxvJwrG-3" value="&lt;p style=&quot;line-height: 100%; margin-bottom: 0in;&quot;&gt;&lt;b&gt;Open Systems Interconnection model (OSI)&lt;/b&gt;&lt;/p&gt;" style="shape=partialRectangle;html=1;whiteSpace=wrap;connectable=0;strokeColor=inherit;overflow=hidden;fillColor=none;top=0;left=0;bottom=0;right=0;pointerEvents=1;fontSize=16;align=center;spacingLeft=5;rowspan=1;colspan=2;" vertex="1" parent="hqlTSE6iJHoxaWxvJwrG-2">
          <mxGeometry width="370" height="84" as="geometry">
            <mxRectangle width="286" height="84" as="alternateBounds" />
          </mxGeometry>
        </mxCell>
        <mxCell id="hqlTSE6iJHoxaWxvJwrG-4" value="OSI layer" style="shape=partialRectangle;html=1;whiteSpace=wrap;connectable=0;strokeColor=inherit;overflow=hidden;fillColor=none;top=0;left=0;bottom=0;right=0;pointerEvents=1;fontSize=16;align=center;spacingLeft=5;" vertex="1" visible="0" parent="hqlTSE6iJHoxaWxvJwrG-2">
          <mxGeometry x="286" width="84" height="84" as="geometry">
            <mxRectangle width="84" height="84" as="alternateBounds" />
          </mxGeometry>
        </mxCell>
        <mxCell id="hqlTSE6iJHoxaWxvJwrG-79" value="TCP/IP" style="shape=partialRectangle;html=1;whiteSpace=wrap;connectable=1;strokeColor=inherit;overflow=hidden;fillColor=none;top=0;left=0;bottom=0;right=0;pointerEvents=1;fontSize=16;movable=1;resizable=1;rotatable=1;deletable=1;editable=1;locked=0;align=center;spacingLeft=5;fontStyle=1" vertex="1" parent="hqlTSE6iJHoxaWxvJwrG-2">
          <mxGeometry x="370" width="179" height="84" as="geometry">
            <mxRectangle width="179" height="84" as="alternateBounds" />
          </mxGeometry>
        </mxCell>
        <mxCell id="hqlTSE6iJHoxaWxvJwrG-5" value="Protocol Data Unit (PDU)" style="shape=partialRectangle;html=1;whiteSpace=wrap;connectable=1;strokeColor=inherit;overflow=hidden;fillColor=none;top=0;left=0;bottom=0;right=0;pointerEvents=1;fontSize=16;movable=1;resizable=1;rotatable=1;deletable=1;editable=1;locked=0;align=left;spacingLeft=5;fontStyle=1" vertex="1" parent="hqlTSE6iJHoxaWxvJwrG-2">
          <mxGeometry x="549" width="201" height="84" as="geometry">
            <mxRectangle width="201" height="84" as="alternateBounds" />
          </mxGeometry>
        </mxCell>
        <mxCell id="hqlTSE6iJHoxaWxvJwrG-14" value="Device" style="shape=partialRectangle;html=1;whiteSpace=wrap;connectable=1;strokeColor=inherit;overflow=hidden;fillColor=none;top=0;left=0;bottom=0;right=0;pointerEvents=1;fontSize=16;movable=1;resizable=1;rotatable=1;deletable=1;editable=1;locked=0;align=left;spacingLeft=5;fontStyle=1" vertex="1" parent="hqlTSE6iJHoxaWxvJwrG-2">
          <mxGeometry x="750" width="320" height="84" as="geometry">
            <mxRectangle width="320" height="84" as="alternateBounds" />
          </mxGeometry>
        </mxCell>
        <mxCell id="hqlTSE6iJHoxaWxvJwrG-20" value="Protocol" style="shape=partialRectangle;html=1;whiteSpace=wrap;connectable=1;strokeColor=inherit;overflow=hidden;fillColor=none;top=0;left=0;bottom=0;right=0;pointerEvents=1;fontSize=16;movable=1;resizable=1;rotatable=1;deletable=1;editable=1;locked=0;align=left;spacingLeft=5;fontStyle=1" vertex="1" parent="hqlTSE6iJHoxaWxvJwrG-2">
          <mxGeometry x="1070" width="220" height="84" as="geometry">
            <mxRectangle width="220" height="84" as="alternateBounds" />
          </mxGeometry>
        </mxCell>
        <mxCell id="hqlTSE6iJHoxaWxvJwrG-17" value="Function" style="shape=partialRectangle;html=1;whiteSpace=wrap;connectable=1;strokeColor=inherit;overflow=hidden;fillColor=none;top=0;left=0;bottom=0;right=0;pointerEvents=1;fontSize=16;movable=1;resizable=1;rotatable=1;deletable=1;editable=1;locked=0;align=left;spacingLeft=5;fontStyle=1" vertex="1" parent="hqlTSE6iJHoxaWxvJwrG-2">
          <mxGeometry x="1290" width="510" height="84" as="geometry">
            <mxRectangle width="510" height="84" as="alternateBounds" />
          </mxGeometry>
        </mxCell>
        <mxCell id="hqlTSE6iJHoxaWxvJwrG-6" value="" style="shape=tableRow;horizontal=0;startSize=0;swimlaneHead=0;swimlaneBody=0;strokeColor=inherit;top=0;left=0;bottom=0;right=0;collapsible=0;dropTarget=0;fillColor=none;points=[[0,0.5],[1,0.5]];portConstraint=eastwest;fontSize=16;align=left;spacingLeft=5;" vertex="1" parent="hqlTSE6iJHoxaWxvJwrG-1">
          <mxGeometry y="84" width="1799.9999999999995" height="82" as="geometry" />
        </mxCell>
        <mxCell id="hqlTSE6iJHoxaWxvJwrG-7" value="Application layer" style="shape=partialRectangle;html=1;whiteSpace=wrap;connectable=0;strokeColor=inherit;overflow=hidden;fillColor=none;top=0;left=0;bottom=0;right=0;pointerEvents=1;fontSize=16;align=left;spacingLeft=5;" vertex="1" parent="hqlTSE6iJHoxaWxvJwrG-6">
          <mxGeometry width="286" height="82" as="geometry">
            <mxRectangle width="286" height="82" as="alternateBounds" />
          </mxGeometry>
        </mxCell>
        <mxCell id="hqlTSE6iJHoxaWxvJwrG-8" value="7" style="shape=partialRectangle;html=1;whiteSpace=wrap;connectable=0;strokeColor=inherit;overflow=hidden;fillColor=none;top=0;left=0;bottom=0;right=0;pointerEvents=1;fontSize=16;align=center;spacingLeft=5;" vertex="1" parent="hqlTSE6iJHoxaWxvJwrG-6">
          <mxGeometry x="286" width="84" height="82" as="geometry">
            <mxRectangle width="84" height="82" as="alternateBounds" />
          </mxGeometry>
        </mxCell>
        <mxCell id="hqlTSE6iJHoxaWxvJwrG-80" value="Application layer" style="shape=partialRectangle;html=1;whiteSpace=wrap;connectable=1;strokeColor=inherit;overflow=hidden;fillColor=none;top=0;left=0;bottom=0;right=0;pointerEvents=1;fontSize=16;movable=1;resizable=1;rotatable=1;deletable=1;editable=1;locked=0;align=left;spacingLeft=5;rowspan=3;colspan=1;" vertex="1" parent="hqlTSE6iJHoxaWxvJwrG-6">
          <mxGeometry x="370" width="179" height="250" as="geometry">
            <mxRectangle width="179" height="82" as="alternateBounds" />
          </mxGeometry>
        </mxCell>
        <mxCell id="hqlTSE6iJHoxaWxvJwrG-9" value="Data" style="shape=partialRectangle;html=1;whiteSpace=wrap;connectable=1;strokeColor=inherit;overflow=hidden;fillColor=none;top=0;left=0;bottom=0;right=0;pointerEvents=1;fontSize=16;movable=1;resizable=1;rotatable=1;deletable=1;editable=1;locked=0;align=left;spacingLeft=5;" vertex="1" parent="hqlTSE6iJHoxaWxvJwrG-6">
          <mxGeometry x="549" width="201" height="82" as="geometry">
            <mxRectangle width="201" height="82" as="alternateBounds" />
          </mxGeometry>
        </mxCell>
        <mxCell id="hqlTSE6iJHoxaWxvJwrG-15" style="shape=partialRectangle;html=1;whiteSpace=wrap;connectable=1;strokeColor=inherit;overflow=hidden;fillColor=none;top=0;left=0;bottom=0;right=0;pointerEvents=1;fontSize=16;movable=1;resizable=1;rotatable=1;deletable=1;editable=1;locked=0;align=left;spacingLeft=5;" vertex="1" parent="hqlTSE6iJHoxaWxvJwrG-6">
          <mxGeometry x="750" width="320" height="82" as="geometry">
            <mxRectangle width="320" height="82" as="alternateBounds" />
          </mxGeometry>
        </mxCell>
        <mxCell id="hqlTSE6iJHoxaWxvJwrG-21" style="shape=partialRectangle;html=1;whiteSpace=wrap;connectable=1;strokeColor=inherit;overflow=hidden;fillColor=none;top=0;left=0;bottom=0;right=0;pointerEvents=1;fontSize=16;movable=1;resizable=1;rotatable=1;deletable=1;editable=1;locked=0;align=left;spacingLeft=5;" vertex="1" parent="hqlTSE6iJHoxaWxvJwrG-6">
          <mxGeometry x="1070" width="220" height="82" as="geometry">
            <mxRectangle width="220" height="82" as="alternateBounds" />
          </mxGeometry>
        </mxCell>
        <mxCell id="hqlTSE6iJHoxaWxvJwrG-18" style="shape=partialRectangle;html=1;whiteSpace=wrap;connectable=1;strokeColor=inherit;overflow=hidden;fillColor=none;top=0;left=0;bottom=0;right=0;pointerEvents=1;fontSize=16;movable=1;resizable=1;rotatable=1;deletable=1;editable=1;locked=0;align=left;spacingLeft=5;" vertex="1" parent="hqlTSE6iJHoxaWxvJwrG-6">
          <mxGeometry x="1290" width="510" height="82" as="geometry">
            <mxRectangle width="510" height="82" as="alternateBounds" />
          </mxGeometry>
        </mxCell>
        <mxCell id="hqlTSE6iJHoxaWxvJwrG-10" value="" style="shape=tableRow;horizontal=0;startSize=0;swimlaneHead=0;swimlaneBody=0;strokeColor=inherit;top=0;left=0;bottom=0;right=0;collapsible=0;dropTarget=0;fillColor=none;points=[[0,0.5],[1,0.5]];portConstraint=eastwest;fontSize=16;align=left;spacingLeft=5;" vertex="1" parent="hqlTSE6iJHoxaWxvJwrG-1">
          <mxGeometry y="166" width="1799.9999999999995" height="84" as="geometry" />
        </mxCell>
        <mxCell id="hqlTSE6iJHoxaWxvJwrG-11" value="Presentation layer" style="shape=partialRectangle;html=1;whiteSpace=wrap;connectable=0;strokeColor=inherit;overflow=hidden;fillColor=none;top=0;left=0;bottom=0;right=0;pointerEvents=1;fontSize=16;align=left;spacingLeft=5;" vertex="1" parent="hqlTSE6iJHoxaWxvJwrG-10">
          <mxGeometry width="286" height="84" as="geometry">
            <mxRectangle width="286" height="84" as="alternateBounds" />
          </mxGeometry>
        </mxCell>
        <mxCell id="hqlTSE6iJHoxaWxvJwrG-12" value="6" style="shape=partialRectangle;html=1;whiteSpace=wrap;connectable=0;strokeColor=inherit;overflow=hidden;fillColor=none;top=0;left=0;bottom=0;right=0;pointerEvents=1;fontSize=16;align=center;spacingLeft=5;" vertex="1" parent="hqlTSE6iJHoxaWxvJwrG-10">
          <mxGeometry x="286" width="84" height="84" as="geometry">
            <mxRectangle width="84" height="84" as="alternateBounds" />
          </mxGeometry>
        </mxCell>
        <mxCell id="hqlTSE6iJHoxaWxvJwrG-81" value="" style="shape=partialRectangle;html=1;whiteSpace=wrap;connectable=1;strokeColor=inherit;overflow=hidden;fillColor=none;top=0;left=0;bottom=0;right=0;pointerEvents=1;fontSize=16;movable=1;resizable=1;rotatable=1;deletable=1;editable=1;locked=0;align=left;spacingLeft=5;" vertex="1" visible="0" parent="hqlTSE6iJHoxaWxvJwrG-10">
          <mxGeometry x="370" width="179" height="84" as="geometry">
            <mxRectangle width="179" height="84" as="alternateBounds" />
          </mxGeometry>
        </mxCell>
        <mxCell id="hqlTSE6iJHoxaWxvJwrG-13" value="Data" style="shape=partialRectangle;html=1;whiteSpace=wrap;connectable=1;strokeColor=inherit;overflow=hidden;fillColor=none;top=0;left=0;bottom=0;right=0;pointerEvents=1;fontSize=16;movable=1;resizable=1;rotatable=1;deletable=1;editable=1;locked=0;align=left;spacingLeft=5;" vertex="1" parent="hqlTSE6iJHoxaWxvJwrG-10">
          <mxGeometry x="549" width="201" height="84" as="geometry">
            <mxRectangle width="201" height="84" as="alternateBounds" />
          </mxGeometry>
        </mxCell>
        <mxCell id="hqlTSE6iJHoxaWxvJwrG-16" style="shape=partialRectangle;html=1;whiteSpace=wrap;connectable=1;strokeColor=inherit;overflow=hidden;fillColor=none;top=0;left=0;bottom=0;right=0;pointerEvents=1;fontSize=16;movable=1;resizable=1;rotatable=1;deletable=1;editable=1;locked=0;align=left;spacingLeft=5;" vertex="1" parent="hqlTSE6iJHoxaWxvJwrG-10">
          <mxGeometry x="750" width="320" height="84" as="geometry">
            <mxRectangle width="320" height="84" as="alternateBounds" />
          </mxGeometry>
        </mxCell>
        <mxCell id="hqlTSE6iJHoxaWxvJwrG-22" style="shape=partialRectangle;html=1;whiteSpace=wrap;connectable=1;strokeColor=inherit;overflow=hidden;fillColor=none;top=0;left=0;bottom=0;right=0;pointerEvents=1;fontSize=16;movable=1;resizable=1;rotatable=1;deletable=1;editable=1;locked=0;align=left;spacingLeft=5;" vertex="1" parent="hqlTSE6iJHoxaWxvJwrG-10">
          <mxGeometry x="1070" width="220" height="84" as="geometry">
            <mxRectangle width="220" height="84" as="alternateBounds" />
          </mxGeometry>
        </mxCell>
        <mxCell id="hqlTSE6iJHoxaWxvJwrG-19" style="shape=partialRectangle;html=1;whiteSpace=wrap;connectable=1;strokeColor=inherit;overflow=hidden;fillColor=none;top=0;left=0;bottom=0;right=0;pointerEvents=1;fontSize=16;movable=1;resizable=1;rotatable=1;deletable=1;editable=1;locked=0;align=left;spacingLeft=5;" vertex="1" parent="hqlTSE6iJHoxaWxvJwrG-10">
          <mxGeometry x="1290" width="510" height="84" as="geometry">
            <mxRectangle width="510" height="84" as="alternateBounds" />
          </mxGeometry>
        </mxCell>
        <mxCell id="hqlTSE6iJHoxaWxvJwrG-44" style="shape=tableRow;horizontal=0;startSize=0;swimlaneHead=0;swimlaneBody=0;strokeColor=inherit;top=0;left=0;bottom=0;right=0;collapsible=0;dropTarget=0;fillColor=none;points=[[0,0.5],[1,0.5]];portConstraint=eastwest;fontSize=16;align=left;spacingLeft=5;" vertex="1" parent="hqlTSE6iJHoxaWxvJwrG-1">
          <mxGeometry y="250" width="1799.9999999999995" height="84" as="geometry" />
        </mxCell>
        <mxCell id="hqlTSE6iJHoxaWxvJwrG-45" value="Session layer" style="shape=partialRectangle;html=1;whiteSpace=wrap;connectable=0;strokeColor=inherit;overflow=hidden;fillColor=none;top=0;left=0;bottom=0;right=0;pointerEvents=1;fontSize=16;align=left;spacingLeft=5;" vertex="1" parent="hqlTSE6iJHoxaWxvJwrG-44">
          <mxGeometry width="286" height="84" as="geometry">
            <mxRectangle width="286" height="84" as="alternateBounds" />
          </mxGeometry>
        </mxCell>
        <mxCell id="hqlTSE6iJHoxaWxvJwrG-46" value="5" style="shape=partialRectangle;html=1;whiteSpace=wrap;connectable=0;strokeColor=inherit;overflow=hidden;fillColor=none;top=0;left=0;bottom=0;right=0;pointerEvents=1;fontSize=16;align=center;spacingLeft=5;" vertex="1" parent="hqlTSE6iJHoxaWxvJwrG-44">
          <mxGeometry x="286" width="84" height="84" as="geometry">
            <mxRectangle width="84" height="84" as="alternateBounds" />
          </mxGeometry>
        </mxCell>
        <mxCell id="hqlTSE6iJHoxaWxvJwrG-82" value="" style="shape=partialRectangle;html=1;whiteSpace=wrap;connectable=1;strokeColor=inherit;overflow=hidden;fillColor=none;top=0;left=0;bottom=0;right=0;pointerEvents=1;fontSize=16;movable=1;resizable=1;rotatable=1;deletable=1;editable=1;locked=0;align=left;spacingLeft=5;" vertex="1" visible="0" parent="hqlTSE6iJHoxaWxvJwrG-44">
          <mxGeometry x="370" width="179" height="84" as="geometry">
            <mxRectangle width="179" height="84" as="alternateBounds" />
          </mxGeometry>
        </mxCell>
        <mxCell id="hqlTSE6iJHoxaWxvJwrG-47" value="Data" style="shape=partialRectangle;html=1;whiteSpace=wrap;connectable=1;strokeColor=inherit;overflow=hidden;fillColor=none;top=0;left=0;bottom=0;right=0;pointerEvents=1;fontSize=16;movable=1;resizable=1;rotatable=1;deletable=1;editable=1;locked=0;align=left;spacingLeft=5;" vertex="1" parent="hqlTSE6iJHoxaWxvJwrG-44">
          <mxGeometry x="549" width="201" height="84" as="geometry">
            <mxRectangle width="201" height="84" as="alternateBounds" />
          </mxGeometry>
        </mxCell>
        <mxCell id="hqlTSE6iJHoxaWxvJwrG-48" style="shape=partialRectangle;html=1;whiteSpace=wrap;connectable=1;strokeColor=inherit;overflow=hidden;fillColor=none;top=0;left=0;bottom=0;right=0;pointerEvents=1;fontSize=16;movable=1;resizable=1;rotatable=1;deletable=1;editable=1;locked=0;align=left;spacingLeft=5;" vertex="1" parent="hqlTSE6iJHoxaWxvJwrG-44">
          <mxGeometry x="750" width="320" height="84" as="geometry">
            <mxRectangle width="320" height="84" as="alternateBounds" />
          </mxGeometry>
        </mxCell>
        <mxCell id="hqlTSE6iJHoxaWxvJwrG-49" style="shape=partialRectangle;html=1;whiteSpace=wrap;connectable=1;strokeColor=inherit;overflow=hidden;fillColor=none;top=0;left=0;bottom=0;right=0;pointerEvents=1;fontSize=16;movable=1;resizable=1;rotatable=1;deletable=1;editable=1;locked=0;align=left;spacingLeft=5;" vertex="1" parent="hqlTSE6iJHoxaWxvJwrG-44">
          <mxGeometry x="1070" width="220" height="84" as="geometry">
            <mxRectangle width="220" height="84" as="alternateBounds" />
          </mxGeometry>
        </mxCell>
        <mxCell id="hqlTSE6iJHoxaWxvJwrG-50" style="shape=partialRectangle;html=1;whiteSpace=wrap;connectable=1;strokeColor=inherit;overflow=hidden;fillColor=none;top=0;left=0;bottom=0;right=0;pointerEvents=1;fontSize=16;movable=1;resizable=1;rotatable=1;deletable=1;editable=1;locked=0;align=left;spacingLeft=5;" vertex="1" parent="hqlTSE6iJHoxaWxvJwrG-44">
          <mxGeometry x="1290" width="510" height="84" as="geometry">
            <mxRectangle width="510" height="84" as="alternateBounds" />
          </mxGeometry>
        </mxCell>
        <mxCell id="hqlTSE6iJHoxaWxvJwrG-51" style="shape=tableRow;horizontal=0;startSize=0;swimlaneHead=0;swimlaneBody=0;strokeColor=inherit;top=0;left=0;bottom=0;right=0;collapsible=0;dropTarget=0;fillColor=none;points=[[0,0.5],[1,0.5]];portConstraint=eastwest;fontSize=16;align=left;spacingLeft=5;" vertex="1" parent="hqlTSE6iJHoxaWxvJwrG-1">
          <mxGeometry y="334" width="1799.9999999999995" height="84" as="geometry" />
        </mxCell>
        <mxCell id="hqlTSE6iJHoxaWxvJwrG-52" value="Transport layer" style="shape=partialRectangle;html=1;whiteSpace=wrap;connectable=0;strokeColor=inherit;overflow=hidden;fillColor=none;top=0;left=0;bottom=0;right=0;pointerEvents=1;fontSize=16;align=left;spacingLeft=5;" vertex="1" parent="hqlTSE6iJHoxaWxvJwrG-51">
          <mxGeometry width="286" height="84" as="geometry">
            <mxRectangle width="286" height="84" as="alternateBounds" />
          </mxGeometry>
        </mxCell>
        <mxCell id="hqlTSE6iJHoxaWxvJwrG-53" value="4" style="shape=partialRectangle;html=1;whiteSpace=wrap;connectable=0;strokeColor=inherit;overflow=hidden;fillColor=none;top=0;left=0;bottom=0;right=0;pointerEvents=1;fontSize=16;align=center;spacingLeft=5;" vertex="1" parent="hqlTSE6iJHoxaWxvJwrG-51">
          <mxGeometry x="286" width="84" height="84" as="geometry">
            <mxRectangle width="84" height="84" as="alternateBounds" />
          </mxGeometry>
        </mxCell>
        <mxCell id="hqlTSE6iJHoxaWxvJwrG-83" value="&#xa;&lt;span style=&quot;color: rgb(0, 0, 0); font-family: Helvetica; font-size: 16px; font-style: normal; font-variant-ligatures: normal; font-variant-caps: normal; font-weight: 400; letter-spacing: normal; orphans: 2; text-align: left; text-indent: 0px; text-transform: none; widows: 2; word-spacing: 0px; -webkit-text-stroke-width: 0px; background-color: rgb(251, 251, 251); text-decoration-thickness: initial; text-decoration-style: initial; text-decoration-color: initial; float: none; display: inline !important;&quot;&gt;Transport layer&lt;/span&gt;&#xa;&#xa;" style="shape=partialRectangle;html=1;whiteSpace=wrap;connectable=1;strokeColor=inherit;overflow=hidden;fillColor=none;top=0;left=0;bottom=0;right=0;pointerEvents=1;fontSize=16;movable=1;resizable=1;rotatable=1;deletable=1;editable=1;locked=0;align=left;spacingLeft=5;" vertex="1" parent="hqlTSE6iJHoxaWxvJwrG-51">
          <mxGeometry x="370" width="179" height="84" as="geometry">
            <mxRectangle width="179" height="84" as="alternateBounds" />
          </mxGeometry>
        </mxCell>
        <mxCell id="hqlTSE6iJHoxaWxvJwrG-54" value="Segment | Datagram" style="shape=partialRectangle;html=1;whiteSpace=wrap;connectable=1;strokeColor=inherit;overflow=hidden;fillColor=none;top=0;left=0;bottom=0;right=0;pointerEvents=1;fontSize=16;movable=1;resizable=1;rotatable=1;deletable=1;editable=1;locked=0;align=left;spacingLeft=5;" vertex="1" parent="hqlTSE6iJHoxaWxvJwrG-51">
          <mxGeometry x="549" width="201" height="84" as="geometry">
            <mxRectangle width="201" height="84" as="alternateBounds" />
          </mxGeometry>
        </mxCell>
        <mxCell id="hqlTSE6iJHoxaWxvJwrG-55" style="shape=partialRectangle;html=1;whiteSpace=wrap;connectable=1;strokeColor=inherit;overflow=hidden;fillColor=none;top=0;left=0;bottom=0;right=0;pointerEvents=1;fontSize=16;movable=1;resizable=1;rotatable=1;deletable=1;editable=1;locked=0;align=left;spacingLeft=5;" vertex="1" parent="hqlTSE6iJHoxaWxvJwrG-51">
          <mxGeometry x="750" width="320" height="84" as="geometry">
            <mxRectangle width="320" height="84" as="alternateBounds" />
          </mxGeometry>
        </mxCell>
        <mxCell id="hqlTSE6iJHoxaWxvJwrG-56" style="shape=partialRectangle;html=1;whiteSpace=wrap;connectable=1;strokeColor=inherit;overflow=hidden;fillColor=none;top=0;left=0;bottom=0;right=0;pointerEvents=1;fontSize=16;movable=1;resizable=1;rotatable=1;deletable=1;editable=1;locked=0;align=left;spacingLeft=5;" vertex="1" parent="hqlTSE6iJHoxaWxvJwrG-51">
          <mxGeometry x="1070" width="220" height="84" as="geometry">
            <mxRectangle width="220" height="84" as="alternateBounds" />
          </mxGeometry>
        </mxCell>
        <mxCell id="hqlTSE6iJHoxaWxvJwrG-57" style="shape=partialRectangle;html=1;whiteSpace=wrap;connectable=1;strokeColor=inherit;overflow=hidden;fillColor=none;top=0;left=0;bottom=0;right=0;pointerEvents=1;fontSize=16;movable=1;resizable=1;rotatable=1;deletable=1;editable=1;locked=0;align=left;spacingLeft=5;" vertex="1" parent="hqlTSE6iJHoxaWxvJwrG-51">
          <mxGeometry x="1290" width="510" height="84" as="geometry">
            <mxRectangle width="510" height="84" as="alternateBounds" />
          </mxGeometry>
        </mxCell>
        <mxCell id="hqlTSE6iJHoxaWxvJwrG-58" style="shape=tableRow;horizontal=0;startSize=0;swimlaneHead=0;swimlaneBody=0;strokeColor=inherit;top=0;left=0;bottom=0;right=0;collapsible=0;dropTarget=0;fillColor=none;points=[[0,0.5],[1,0.5]];portConstraint=eastwest;fontSize=16;align=left;spacingLeft=5;" vertex="1" parent="hqlTSE6iJHoxaWxvJwrG-1">
          <mxGeometry y="418" width="1799.9999999999995" height="84" as="geometry" />
        </mxCell>
        <mxCell id="hqlTSE6iJHoxaWxvJwrG-59" value="Network layer" style="shape=partialRectangle;html=1;whiteSpace=wrap;connectable=0;strokeColor=inherit;overflow=hidden;fillColor=none;top=0;left=0;bottom=0;right=0;pointerEvents=1;fontSize=16;align=left;spacingLeft=5;" vertex="1" parent="hqlTSE6iJHoxaWxvJwrG-58">
          <mxGeometry width="286" height="84" as="geometry">
            <mxRectangle width="286" height="84" as="alternateBounds" />
          </mxGeometry>
        </mxCell>
        <mxCell id="hqlTSE6iJHoxaWxvJwrG-60" value="3" style="shape=partialRectangle;html=1;whiteSpace=wrap;connectable=0;strokeColor=inherit;overflow=hidden;fillColor=none;top=0;left=0;bottom=0;right=0;pointerEvents=1;fontSize=16;align=center;spacingLeft=5;" vertex="1" parent="hqlTSE6iJHoxaWxvJwrG-58">
          <mxGeometry x="286" width="84" height="84" as="geometry">
            <mxRectangle width="84" height="84" as="alternateBounds" />
          </mxGeometry>
        </mxCell>
        <mxCell id="hqlTSE6iJHoxaWxvJwrG-84" value="&#xa;&lt;span style=&quot;color: rgb(0, 0, 0); font-family: Helvetica; font-size: 16px; font-style: normal; font-variant-ligatures: normal; font-variant-caps: normal; font-weight: 400; letter-spacing: normal; orphans: 2; text-align: left; text-indent: 0px; text-transform: none; widows: 2; word-spacing: 0px; -webkit-text-stroke-width: 0px; background-color: rgb(251, 251, 251); text-decoration-thickness: initial; text-decoration-style: initial; text-decoration-color: initial; float: none; display: inline !important;&quot;&gt;Network layer&lt;/span&gt;&#xa;&#xa;" style="shape=partialRectangle;html=1;whiteSpace=wrap;connectable=1;strokeColor=inherit;overflow=hidden;fillColor=none;top=0;left=0;bottom=0;right=0;pointerEvents=1;fontSize=16;movable=1;resizable=1;rotatable=1;deletable=1;editable=1;locked=0;align=left;spacingLeft=5;" vertex="1" parent="hqlTSE6iJHoxaWxvJwrG-58">
          <mxGeometry x="370" width="179" height="84" as="geometry">
            <mxRectangle width="179" height="84" as="alternateBounds" />
          </mxGeometry>
        </mxCell>
        <mxCell id="hqlTSE6iJHoxaWxvJwrG-61" value="Packet" style="shape=partialRectangle;html=1;whiteSpace=wrap;connectable=1;strokeColor=inherit;overflow=hidden;fillColor=none;top=0;left=0;bottom=0;right=0;pointerEvents=1;fontSize=16;movable=1;resizable=1;rotatable=1;deletable=1;editable=1;locked=0;align=left;spacingLeft=5;" vertex="1" parent="hqlTSE6iJHoxaWxvJwrG-58">
          <mxGeometry x="549" width="201" height="84" as="geometry">
            <mxRectangle width="201" height="84" as="alternateBounds" />
          </mxGeometry>
        </mxCell>
        <mxCell id="hqlTSE6iJHoxaWxvJwrG-62" style="shape=partialRectangle;html=1;whiteSpace=wrap;connectable=1;strokeColor=inherit;overflow=hidden;fillColor=none;top=0;left=0;bottom=0;right=0;pointerEvents=1;fontSize=16;movable=1;resizable=1;rotatable=1;deletable=1;editable=1;locked=0;align=left;spacingLeft=5;" vertex="1" parent="hqlTSE6iJHoxaWxvJwrG-58">
          <mxGeometry x="750" width="320" height="84" as="geometry">
            <mxRectangle width="320" height="84" as="alternateBounds" />
          </mxGeometry>
        </mxCell>
        <mxCell id="hqlTSE6iJHoxaWxvJwrG-63" style="shape=partialRectangle;html=1;whiteSpace=wrap;connectable=1;strokeColor=inherit;overflow=hidden;fillColor=none;top=0;left=0;bottom=0;right=0;pointerEvents=1;fontSize=16;movable=1;resizable=1;rotatable=1;deletable=1;editable=1;locked=0;align=left;spacingLeft=5;" vertex="1" parent="hqlTSE6iJHoxaWxvJwrG-58">
          <mxGeometry x="1070" width="220" height="84" as="geometry">
            <mxRectangle width="220" height="84" as="alternateBounds" />
          </mxGeometry>
        </mxCell>
        <mxCell id="hqlTSE6iJHoxaWxvJwrG-64" style="shape=partialRectangle;html=1;whiteSpace=wrap;connectable=1;strokeColor=inherit;overflow=hidden;fillColor=none;top=0;left=0;bottom=0;right=0;pointerEvents=1;fontSize=16;movable=1;resizable=1;rotatable=1;deletable=1;editable=1;locked=0;align=left;spacingLeft=5;" vertex="1" parent="hqlTSE6iJHoxaWxvJwrG-58">
          <mxGeometry x="1290" width="510" height="84" as="geometry">
            <mxRectangle width="510" height="84" as="alternateBounds" />
          </mxGeometry>
        </mxCell>
        <mxCell id="hqlTSE6iJHoxaWxvJwrG-65" style="shape=tableRow;horizontal=0;startSize=0;swimlaneHead=0;swimlaneBody=0;strokeColor=inherit;top=0;left=0;bottom=0;right=0;collapsible=0;dropTarget=0;fillColor=none;points=[[0,0.5],[1,0.5]];portConstraint=eastwest;fontSize=16;align=left;spacingLeft=5;" vertex="1" parent="hqlTSE6iJHoxaWxvJwrG-1">
          <mxGeometry y="502" width="1799.9999999999995" height="84" as="geometry" />
        </mxCell>
        <mxCell id="hqlTSE6iJHoxaWxvJwrG-66" value="Network layer&amp;nbsp;" style="shape=partialRectangle;html=1;whiteSpace=wrap;connectable=0;strokeColor=inherit;overflow=hidden;fillColor=none;top=0;left=0;bottom=0;right=0;pointerEvents=1;fontSize=16;align=left;spacingLeft=5;" vertex="1" parent="hqlTSE6iJHoxaWxvJwrG-65">
          <mxGeometry width="286" height="84" as="geometry">
            <mxRectangle width="286" height="84" as="alternateBounds" />
          </mxGeometry>
        </mxCell>
        <mxCell id="hqlTSE6iJHoxaWxvJwrG-67" value="2" style="shape=partialRectangle;html=1;whiteSpace=wrap;connectable=0;strokeColor=inherit;overflow=hidden;fillColor=none;top=0;left=0;bottom=0;right=0;pointerEvents=1;fontSize=16;align=center;spacingLeft=5;" vertex="1" parent="hqlTSE6iJHoxaWxvJwrG-65">
          <mxGeometry x="286" width="84" height="84" as="geometry">
            <mxRectangle width="84" height="84" as="alternateBounds" />
          </mxGeometry>
        </mxCell>
        <mxCell id="hqlTSE6iJHoxaWxvJwrG-85" value="Network access layer" style="shape=partialRectangle;html=1;whiteSpace=wrap;connectable=1;strokeColor=inherit;overflow=hidden;fillColor=none;top=0;left=0;bottom=0;right=0;pointerEvents=1;fontSize=16;movable=1;resizable=1;rotatable=1;deletable=1;editable=1;locked=0;align=left;spacingLeft=5;rowspan=2;colspan=1;" vertex="1" parent="hqlTSE6iJHoxaWxvJwrG-65">
          <mxGeometry x="370" width="179" height="168" as="geometry">
            <mxRectangle width="179" height="84" as="alternateBounds" />
          </mxGeometry>
        </mxCell>
        <mxCell id="hqlTSE6iJHoxaWxvJwrG-68" value="Frame&lt;span style=&quot;white-space: pre;&quot;&gt;&#x9;&lt;/span&gt;" style="shape=partialRectangle;html=1;whiteSpace=wrap;connectable=1;strokeColor=inherit;overflow=hidden;fillColor=none;top=0;left=0;bottom=0;right=0;pointerEvents=1;fontSize=16;movable=1;resizable=1;rotatable=1;deletable=1;editable=1;locked=0;align=left;spacingLeft=5;" vertex="1" parent="hqlTSE6iJHoxaWxvJwrG-65">
          <mxGeometry x="549" width="201" height="84" as="geometry">
            <mxRectangle width="201" height="84" as="alternateBounds" />
          </mxGeometry>
        </mxCell>
        <mxCell id="hqlTSE6iJHoxaWxvJwrG-69" style="shape=partialRectangle;html=1;whiteSpace=wrap;connectable=1;strokeColor=inherit;overflow=hidden;fillColor=none;top=0;left=0;bottom=0;right=0;pointerEvents=1;fontSize=16;movable=1;resizable=1;rotatable=1;deletable=1;editable=1;locked=0;align=left;spacingLeft=5;" vertex="1" parent="hqlTSE6iJHoxaWxvJwrG-65">
          <mxGeometry x="750" width="320" height="84" as="geometry">
            <mxRectangle width="320" height="84" as="alternateBounds" />
          </mxGeometry>
        </mxCell>
        <mxCell id="hqlTSE6iJHoxaWxvJwrG-70" style="shape=partialRectangle;html=1;whiteSpace=wrap;connectable=1;strokeColor=inherit;overflow=hidden;fillColor=none;top=0;left=0;bottom=0;right=0;pointerEvents=1;fontSize=16;movable=1;resizable=1;rotatable=1;deletable=1;editable=1;locked=0;align=left;spacingLeft=5;" vertex="1" parent="hqlTSE6iJHoxaWxvJwrG-65">
          <mxGeometry x="1070" width="220" height="84" as="geometry">
            <mxRectangle width="220" height="84" as="alternateBounds" />
          </mxGeometry>
        </mxCell>
        <mxCell id="hqlTSE6iJHoxaWxvJwrG-71" style="shape=partialRectangle;html=1;whiteSpace=wrap;connectable=1;strokeColor=inherit;overflow=hidden;fillColor=none;top=0;left=0;bottom=0;right=0;pointerEvents=1;fontSize=16;movable=1;resizable=1;rotatable=1;deletable=1;editable=1;locked=0;align=left;spacingLeft=5;" vertex="1" parent="hqlTSE6iJHoxaWxvJwrG-65">
          <mxGeometry x="1290" width="510" height="84" as="geometry">
            <mxRectangle width="510" height="84" as="alternateBounds" />
          </mxGeometry>
        </mxCell>
        <mxCell id="hqlTSE6iJHoxaWxvJwrG-72" style="shape=tableRow;horizontal=0;startSize=0;swimlaneHead=0;swimlaneBody=0;strokeColor=inherit;top=0;left=0;bottom=0;right=0;collapsible=0;dropTarget=0;fillColor=none;points=[[0,0.5],[1,0.5]];portConstraint=eastwest;fontSize=16;align=left;spacingLeft=5;" vertex="1" parent="hqlTSE6iJHoxaWxvJwrG-1">
          <mxGeometry y="586" width="1799.9999999999995" height="84" as="geometry" />
        </mxCell>
        <mxCell id="hqlTSE6iJHoxaWxvJwrG-73" value="Physical layer" style="shape=partialRectangle;html=1;whiteSpace=wrap;connectable=0;strokeColor=inherit;overflow=hidden;fillColor=none;top=0;left=0;bottom=0;right=0;pointerEvents=1;fontSize=16;align=left;spacingLeft=5;" vertex="1" parent="hqlTSE6iJHoxaWxvJwrG-72">
          <mxGeometry width="286" height="84" as="geometry">
            <mxRectangle width="286" height="84" as="alternateBounds" />
          </mxGeometry>
        </mxCell>
        <mxCell id="hqlTSE6iJHoxaWxvJwrG-74" value="1" style="shape=partialRectangle;html=1;whiteSpace=wrap;connectable=0;strokeColor=inherit;overflow=hidden;fillColor=none;top=0;left=0;bottom=0;right=0;pointerEvents=1;fontSize=16;align=center;spacingLeft=5;" vertex="1" parent="hqlTSE6iJHoxaWxvJwrG-72">
          <mxGeometry x="286" width="84" height="84" as="geometry">
            <mxRectangle width="84" height="84" as="alternateBounds" />
          </mxGeometry>
        </mxCell>
        <mxCell id="hqlTSE6iJHoxaWxvJwrG-86" style="shape=partialRectangle;html=1;whiteSpace=wrap;connectable=1;strokeColor=inherit;overflow=hidden;fillColor=none;top=0;left=0;bottom=0;right=0;pointerEvents=1;fontSize=16;movable=1;resizable=1;rotatable=1;deletable=1;editable=1;locked=0;align=left;spacingLeft=5;" vertex="1" visible="0" parent="hqlTSE6iJHoxaWxvJwrG-72">
          <mxGeometry x="370" width="179" height="84" as="geometry">
            <mxRectangle width="179" height="84" as="alternateBounds" />
          </mxGeometry>
        </mxCell>
        <mxCell id="hqlTSE6iJHoxaWxvJwrG-75" value="Bits" style="shape=partialRectangle;html=1;whiteSpace=wrap;connectable=1;strokeColor=inherit;overflow=hidden;fillColor=none;top=0;left=0;bottom=0;right=0;pointerEvents=1;fontSize=16;movable=1;resizable=1;rotatable=1;deletable=1;editable=1;locked=0;align=left;spacingLeft=5;" vertex="1" parent="hqlTSE6iJHoxaWxvJwrG-72">
          <mxGeometry x="549" width="201" height="84" as="geometry">
            <mxRectangle width="201" height="84" as="alternateBounds" />
          </mxGeometry>
        </mxCell>
        <mxCell id="hqlTSE6iJHoxaWxvJwrG-76" style="shape=partialRectangle;html=1;whiteSpace=wrap;connectable=1;strokeColor=inherit;overflow=hidden;fillColor=none;top=0;left=0;bottom=0;right=0;pointerEvents=1;fontSize=16;movable=1;resizable=1;rotatable=1;deletable=1;editable=1;locked=0;align=left;spacingLeft=5;" vertex="1" parent="hqlTSE6iJHoxaWxvJwrG-72">
          <mxGeometry x="750" width="320" height="84" as="geometry">
            <mxRectangle width="320" height="84" as="alternateBounds" />
          </mxGeometry>
        </mxCell>
        <mxCell id="hqlTSE6iJHoxaWxvJwrG-77" style="shape=partialRectangle;html=1;whiteSpace=wrap;connectable=1;strokeColor=inherit;overflow=hidden;fillColor=none;top=0;left=0;bottom=0;right=0;pointerEvents=1;fontSize=16;movable=1;resizable=1;rotatable=1;deletable=1;editable=1;locked=0;align=left;spacingLeft=5;" vertex="1" parent="hqlTSE6iJHoxaWxvJwrG-72">
          <mxGeometry x="1070" width="220" height="84" as="geometry">
            <mxRectangle width="220" height="84" as="alternateBounds" />
          </mxGeometry>
        </mxCell>
        <mxCell id="hqlTSE6iJHoxaWxvJwrG-78" style="shape=partialRectangle;html=1;whiteSpace=wrap;connectable=1;strokeColor=inherit;overflow=hidden;fillColor=none;top=0;left=0;bottom=0;right=0;pointerEvents=1;fontSize=16;movable=1;resizable=1;rotatable=1;deletable=1;editable=1;locked=0;align=left;spacingLeft=5;" vertex="1" parent="hqlTSE6iJHoxaWxvJwrG-72">
          <mxGeometry x="1290" width="510" height="84" as="geometry">
            <mxRectangle width="510" height="84" as="alternateBounds" />
          </mxGeometry>
        </mxCell>
      </root>
    </mxGraphModel>
  </diagram>
</mxfile>
